<svg version="1" xmlns="http://www.w3.org/2000/svg" width="533.333" height="533.333" viewBox="0 0 400.000000 400.000000"><path d="M0 200v200h400V0H0v200zm250.5-26.8l15.2 40.8 14.9-40.8 15-40.7 15.7-.3c12.2-.2 15.7 0 15.6 1 0 .7-10.9 26.5-24.2 57.3l-24.2 56-13 .3-13 .3-24.3-56.3c-13.3-31-24.2-56.9-24.2-57.6 0-1 3.5-1.2 15.6-1l15.6.3 15.3 40.7zm-62.5 13c12.3 27.7 23.4 52.7 24.7 55.5l2.3 5.3h-32.5l-13.8-35.8c-7.6-19.6-14.4-37.5-15.2-39.7-.8-2.2-1.4-3.4-1.5-2.7 0 .9-21.4 58.3-28.5 76.4-.6 1.6-2.4 1.8-16.7 1.8-13 0-15.9-.3-15.6-1.4.2-.7 11.1-25.7 24.3-55.4l24-54.2h26.2l22.3 50.2z"/></svg>